<?xml version="1.0" encoding="UTF-8" standalone="no"?>
<!DOCTYPE svg PUBLIC "-//W3C//DTD SVG 1.1//EN"
 "http://www.w3.org/Graphics/SVG/1.1/DTD/svg11.dtd">
<!-- Generated by graphviz version 9.0.0 (20230911.1827)
 -->
<!-- Title: Ryokucha.DropDownText Pages: 1 -->
<svg width="528pt" height="260pt"
 viewBox="0.00 0.00 528.12 260.00" xmlns="http://www.w3.org/2000/svg" xmlns:xlink="http://www.w3.org/1999/xlink">
<g id="graph0" class="graph" transform="scale(1 1) rotate(0) translate(4 256)">
<title>Ryokucha.DropDownText</title>
<polygon fill="white" stroke="none" points="-4,4 -4,-256 524.12,-256 524.12,4 -4,4"/>
<!-- Ryokucha.DropDownText -->
<g id="node1" class="node">
<title>Ryokucha.DropDownText</title>
<g id="a_node1"><a xlink:href="Ryokucha.DropDownText.html" xlink:title="Ryokucha.DropDownText">
<polygon fill="none" stroke="black" stroke-width="2" points="347.38,-36 188.12,-36 188.12,0 347.38,0 347.38,-36"/>
<text text-anchor="middle" x="267.75" y="-11.82" font-family="Times" font-size="14.00">Ryokucha.DropDownText</text>
</a>
</g>
</g>
<!-- Gtk.Widget -->
<g id="node2" class="node">
<title>Gtk.Widget</title>
<polygon fill="none" stroke="black" stroke-width="2" points="307.62,-108 227.88,-108 227.88,-72 307.62,-72 307.62,-108"/>
<text text-anchor="middle" x="267.75" y="-83.83" font-family="Times" font-size="14.00">Gtk.Widget</text>
</g>
<!-- Gtk.Widget&#45;&gt;Ryokucha.DropDownText -->
<g id="edge1" class="edge">
<title>Gtk.Widget&#45;&gt;Ryokucha.DropDownText</title>
<path fill="none" stroke="black" d="M267.75,-60.24C267.75,-52.04 267.75,-43.37 267.75,-36.1"/>
<polygon fill="black" stroke="black" points="264.25,-60.18 267.75,-70.18 271.25,-60.18 264.25,-60.18"/>
</g>
<!-- GLib.InitiallyUnowned -->
<g id="node3" class="node">
<title>GLib.InitiallyUnowned</title>
<polygon fill="none" stroke="black" stroke-width="2" points="143.5,-180 0,-180 0,-144 143.5,-144 143.5,-180"/>
<text text-anchor="middle" x="71.75" y="-155.82" font-family="Times" font-size="14.00">GLib.InitiallyUnowned</text>
</g>
<!-- GLib.InitiallyUnowned&#45;&gt;Gtk.Widget -->
<g id="edge2" class="edge">
<title>GLib.InitiallyUnowned&#45;&gt;Gtk.Widget</title>
<path fill="none" stroke="black" d="M131.45,-139.68C162.63,-128.54 199.95,-115.21 227.65,-105.32"/>
<polygon fill="black" stroke="black" points="130.37,-136.35 122.13,-143.01 132.72,-142.94 130.37,-136.35"/>
</g>
<!-- GLib.Object -->
<g id="node4" class="node">
<title>GLib.Object</title>
<polygon fill="none" stroke="black" stroke-width="2" points="113.88,-252 29.62,-252 29.62,-216 113.88,-216 113.88,-252"/>
<text text-anchor="middle" x="71.75" y="-227.82" font-family="Times" font-size="14.00">GLib.Object</text>
</g>
<!-- GLib.Object&#45;&gt;GLib.InitiallyUnowned -->
<g id="edge3" class="edge">
<title>GLib.Object&#45;&gt;GLib.InitiallyUnowned</title>
<path fill="none" stroke="black" d="M71.75,-204.24C71.75,-196.04 71.75,-187.37 71.75,-180.1"/>
<polygon fill="black" stroke="black" points="68.25,-204.18 71.75,-214.18 75.25,-204.18 68.25,-204.18"/>
</g>
<!-- Gtk.Accessible -->
<g id="node5" class="node">
<title>Gtk.Accessible</title>
<polygon fill="none" stroke="black" points="260,-180 161.5,-180 161.5,-144 260,-144 260,-180"/>
<text text-anchor="middle" x="210.75" y="-155.82" font-family="Times" font-size="14.00">Gtk.Accessible</text>
</g>
<!-- Gtk.Accessible&#45;&gt;Gtk.Widget -->
<g id="edge4" class="edge">
<title>Gtk.Accessible&#45;&gt;Gtk.Widget</title>
<path fill="none" stroke="black" d="M232.09,-134.8C239.36,-125.87 247.29,-116.13 253.82,-108.1"/>
<polygon fill="black" stroke="black" points="229.4,-132.56 225.8,-142.52 234.82,-136.98 229.4,-132.56"/>
</g>
<!-- Gtk.Buildable -->
<g id="node6" class="node">
<title>Gtk.Buildable</title>
<polygon fill="none" stroke="black" points="371,-180 278.5,-180 278.5,-144 371,-144 371,-180"/>
<text text-anchor="middle" x="324.75" y="-155.82" font-family="Times" font-size="14.00">Gtk.Buildable</text>
</g>
<!-- Gtk.Buildable&#45;&gt;Gtk.Widget -->
<g id="edge5" class="edge">
<title>Gtk.Buildable&#45;&gt;Gtk.Widget</title>
<path fill="none" stroke="black" d="M303.41,-134.8C296.14,-125.87 288.21,-116.13 281.68,-108.1"/>
<polygon fill="black" stroke="black" points="300.68,-136.98 309.7,-142.52 306.1,-132.56 300.68,-136.98"/>
</g>
<!-- Gtk.ConstraintTarget -->
<g id="node7" class="node">
<title>Gtk.ConstraintTarget</title>
<polygon fill="none" stroke="black" points="520.12,-180 389.38,-180 389.38,-144 520.12,-144 520.12,-180"/>
<text text-anchor="middle" x="454.75" y="-155.82" font-family="Times" font-size="14.00">Gtk.ConstraintTarget</text>
</g>
<!-- Gtk.ConstraintTarget&#45;&gt;Gtk.Widget -->
<g id="edge6" class="edge">
<title>Gtk.ConstraintTarget&#45;&gt;Gtk.Widget</title>
<path fill="none" stroke="black" d="M397.63,-139.62C368.59,-128.75 334.02,-115.81 307.85,-106.01"/>
<polygon fill="black" stroke="black" points="396.03,-142.76 406.63,-142.99 398.49,-136.2 396.03,-142.76"/>
</g>
</g>
</svg>
